<svg xmlns="http://www.w3.org/2000/svg" viewBox="0 0 102.5 104.36"><defs><style>.cls-1{fill:#231815;}.cls-2{fill:#0075be;}</style></defs><g id="レイヤー_2" data-name="レイヤー 2"><g id="レイヤー_1-2" data-name="レイヤー 1"><circle class="cls-1" cx="51.38" cy="18.18" r="6.48"/><path class="cls-1" d="M51.25,6.55a9.18,9.18,0,0,1,7.5,3.89l12.72-4L51.25,0,31,6.41l12.72,4A9.18,9.18,0,0,1,51.25,6.55Z"/><rect class="cls-1" x="64.08" y="7.38" width="1.76" height="10.26"/><circle class="cls-1" cx="64.96" cy="17.23" r="2.03"/><path class="cls-1" d="M18.16,20.61a40.29,40.29,0,0,0-8.91,1,40.51,40.51,0,0,1,31.5,36.62,3.08,3.08,0,0,0,3.07,2.89h2.29a2.41,2.41,0,0,0,2.41-2.41V41.89a17,17,0,0,0-7.2-14A40.25,40.25,0,0,0,18.16,20.61Z"/><path class="cls-2" d="M84.33,20.61A40.24,40.24,0,0,0,61.18,27.9a17,17,0,0,0-7.2,14V58.71a2.41,2.41,0,0,0,2.41,2.41h2.29a3.08,3.08,0,0,0,3.07-2.89,40.51,40.51,0,0,1,31.5-36.62A40.31,40.31,0,0,0,84.33,20.61Z"/><path class="cls-1" d="M0,103.71v-1.82a2.54,2.54,0,0,0,1.87-.65A5.41,5.41,0,0,0,3,99.47c.29-.75.62-1.58,1-2.5L12.15,74.5h1.62l8.9,22.79c.22.52.46,1.22.73,2.1a7.08,7.08,0,0,1,.37,2.25c.46,0,.91-.09,1.36-.1s.87,0,1.28-.06v2.23H16.53v-1.78a2.46,2.46,0,0,0,1.89-.63,1.85,1.85,0,0,0,.37-1.45,7.19,7.19,0,0,0-.43-1.7l-1.22-3.29-9.95.24L6,98.64c-.16.54-.34,1-.53,1.54l-.56,1.42c.48,0,1-.09,1.56-.1s1,0,1.48-.06v2.27Zm7.92-10.8h8.53L13.89,86c-.32-.89-.63-1.78-.93-2.66s-.57-1.73-.81-2.54h0c-.22.68-.47,1.42-.74,2.24s-.58,1.69-.93,2.64Z"/><path class="cls-1" d="M49.4,104.36a14.4,14.4,0,0,1-7.27-1.78,12.17,12.17,0,0,1-4.83-5A15.89,15.89,0,0,1,35.59,90a18.14,18.14,0,0,1,.87-5.56,15.9,15.9,0,0,1,2.64-5A12.87,12.87,0,0,1,43.53,76a13.8,13.8,0,0,1,6.2-1.32,17.54,17.54,0,0,1,5.66,1,13.23,13.23,0,0,1,2.54,1.18l-.16-1.87h2.52v9.34H58.42a8.43,8.43,0,0,0-1.36-4.12,7.53,7.53,0,0,0-3-2.56,9.17,9.17,0,0,0-4-.87,8.2,8.2,0,0,0-3.92,1,9.62,9.62,0,0,0-3.06,2.64,12.75,12.75,0,0,0-2,4,16.45,16.45,0,0,0-.71,4.88,16.87,16.87,0,0,0,1.24,6.64,10.72,10.72,0,0,0,3.52,4.57A8.76,8.76,0,0,0,50.46,102a12.82,12.82,0,0,0,2.13-.19,15.33,15.33,0,0,0,2.32-.56,9,9,0,0,0,2.09-1V95.71c0-.68,0-1.35,0-2s0-1.28,0-1.85l-1.46.08L54.16,92V89.78h9.71v1.79A2.59,2.59,0,0,0,62.3,92a2.53,2.53,0,0,0-.85,1.12,5.57,5.57,0,0,0-.35,1.42c-.05.5-.08,1-.08,1.4v6.34H60a8.7,8.7,0,0,0-2,.27,20.06,20.06,0,0,0-2.56.79,19.37,19.37,0,0,1-6,1Z"/><path class="cls-1" d="M88,104.36a14.44,14.44,0,0,1-7.28-1.78,12.3,12.3,0,0,1-4.83-5A15.89,15.89,0,0,1,74.22,90a17.86,17.86,0,0,1,.88-5.56,15.5,15.5,0,0,1,2.64-5A12.78,12.78,0,0,1,82.17,76a13.73,13.73,0,0,1,6.19-1.32,17.27,17.27,0,0,1,2.8.24A17.76,17.76,0,0,1,94,75.6a13.82,13.82,0,0,1,2.54,1.18l-.16-1.87h2.52v9.34H97.06a8.34,8.34,0,0,0-1.37-4.12,7.53,7.53,0,0,0-3-2.56,9.12,9.12,0,0,0-4-.87,8.18,8.18,0,0,0-3.92,1,9.76,9.76,0,0,0-3.07,2.64,12.53,12.53,0,0,0-2,4A16.13,16.13,0,0,0,79,89.13a16.7,16.7,0,0,0,1.24,6.64,10.62,10.62,0,0,0,3.51,4.57A8.78,8.78,0,0,0,89.09,102a13,13,0,0,0,2.14-.19,14.93,14.93,0,0,0,2.31-.56,9,9,0,0,0,2.09-1V95.71c0-.68,0-1.35,0-2s0-1.28,0-1.85l-1.46.08L92.79,92V89.78h9.71v1.79a2.41,2.41,0,0,0-2.42,1.56,5.56,5.56,0,0,0-.34,1.42,11.72,11.72,0,0,0-.08,1.4v6.34H98.6a8.77,8.77,0,0,0-2,.27,20.56,20.56,0,0,0-2.56.79,17.62,17.62,0,0,1-2.89.73A18,18,0,0,1,88,104.36Z"/></g></g></svg>