<svg xmlns="http://www.w3.org/2000/svg" xmlns:xlink="http://www.w3.org/1999/xlink" viewBox="0 0 267.36 81.84"><defs><style>.cls-1{fill:url(#名称未設定グラデーション_35);}.cls-2{fill:#4c5faa;}.cls-3{fill:#fff;}</style><linearGradient id="名称未設定グラデーション_35" x1="0.76" y1="40.92" x2="267.36" y2="40.92" gradientUnits="userSpaceOnUse"><stop offset="0" stop-color="#060632"/><stop offset="0.2" stop-color="#0b0f3b"/><stop offset="0.55" stop-color="#3b4a8d"/><stop offset="0.67" stop-color="#4c5faa"/></linearGradient></defs><g id="レイヤー_2" data-name="レイヤー 2"><g id="レイヤー_1-2" data-name="レイヤー 1"><rect class="cls-1" x="0.76" width="266.6" height="81.84" rx="39.37"/><circle class="cls-2" cx="40.92" cy="40.92" r="40.92"/><path class="cls-3" d="M60.15,23.07a44.77,44.77,0,0,0-11.43-3.59,32.67,32.67,0,0,0-1.46,3,42,42,0,0,0-12.67,0c-.4-.95-1-2.15-1.48-3a44.86,44.86,0,0,0-11.44,3.6,48,48,0,0,0-8.22,32.1,45.7,45.7,0,0,0,14,7.18,34.82,34.82,0,0,0,3-4.94,30,30,0,0,1-4.73-2.3l1.16-.92a32.34,32.34,0,0,0,28,0c.38.31.76.62,1.16.92a30.06,30.06,0,0,1-4.74,2.3,35.44,35.44,0,0,0,3,4.95,45.67,45.67,0,0,0,14-7.19A47.9,47.9,0,0,0,60.15,23.07ZM31.72,48.72c-2.74,0-5-2.56-5-5.67s2.19-5.67,5-5.67,5,2.55,5,5.67S34.5,48.72,31.72,48.72Zm18.41,0c-2.74,0-5-2.56-5-5.67s2.2-5.67,5-5.67,5,2.55,5,5.67S52.91,48.72,50.13,48.72Z"/><path class="cls-3" d="M104.09,51.28l4.08-3c1.36,2.47,3.16,3.53,5.2,3.53,3.12,0,4.74-1.7,4.74-6.45V23H124v22.9c0,6.1-3,11.08-10,11.08C109.39,57,106.21,55,104.09,51.28Z"/><path class="cls-3" d="M130.58,39.53c0-10.79,6-17.16,14.71-17.16S160,28.77,160,39.53,154,57,145.29,57,130.58,50.33,130.58,39.53Zm23.34,0c0-7.49-3.38-12-8.63-12s-8.63,4.53-8.63,12,3.39,12.29,8.63,12.29S153.92,47,153.92,39.53Z"/><path class="cls-3" d="M166.72,23h5.92V56.35h-5.92Z"/><path class="cls-3" d="M181.11,23h6.08l10.37,18.76L201,48.86h.2c-.28-3.45-.75-7.67-.75-11.39V23h5.63V56.35H200L189.64,37.56l-3.45-7.09H186c.29,3.53.76,7.55.76,11.27V56.35h-5.63Z"/></g></g></svg>