<svg xmlns="http://www.w3.org/2000/svg" viewBox="0 0 137.5 137.5"><defs><style>.cls-1{fill:#4c5faa;}.cls-2{fill:#fff;}</style></defs><g id="レイヤー_2" data-name="レイヤー 2"><g id="レイヤー_1-2" data-name="レイヤー 1"><circle class="cls-1" cx="68.75" cy="68.75" r="68.75"/><path class="cls-2" d="M101.06,38.76a76,76,0,0,0-19.21-6c-.82,1.5-1.79,3.51-2.46,5.11a70.29,70.29,0,0,0-21.28,0,52.42,52.42,0,0,0-2.49-5.11A76.06,76.06,0,0,0,36.4,38.77C24.25,57.14,21,75.05,22.6,92.7a76.84,76.84,0,0,0,23.56,12.07,59.1,59.1,0,0,0,5-8.31,49.36,49.36,0,0,1-7.94-3.86c.66-.5,1.32-1,1.94-1.54a54.3,54.3,0,0,0,47.09,0c.64.53,1.29,1,1.95,1.54a50.47,50.47,0,0,1-8,3.87,57.88,57.88,0,0,0,5,8.31A76.66,76.66,0,0,0,114.89,92.7C116.83,72.23,111.59,54.49,101.06,38.76ZM53.29,81.84c-4.6,0-8.37-4.29-8.37-9.52s3.69-9.52,8.37-9.52,8.45,4.29,8.37,9.52S58,81.84,53.29,81.84Zm30.92,0c-4.6,0-8.37-4.29-8.37-9.52s3.69-9.52,8.37-9.52,8.45,4.29,8.37,9.52S88.89,81.84,84.21,81.84Z"/></g></g></svg>