<svg xmlns="http://www.w3.org/2000/svg" viewBox="0 0 84 61.12"><defs><style>.cls-1{fill:#231815;}.cls-2{fill:#0075be;}</style></defs><g id="レイヤー_2" data-name="レイヤー 2"><g id="レイヤー_1-2" data-name="レイヤー 1"><circle class="cls-1" cx="42.13" cy="18.18" r="6.48"/><path class="cls-1" d="M42,6.55a9.18,9.18,0,0,1,7.5,3.89l12.72-4L42,0,21.77,6.41l12.73,4A9.18,9.18,0,0,1,42,6.55Z"/><rect class="cls-1" x="54.83" y="7.38" width="1.76" height="10.26"/><circle class="cls-1" cx="55.7" cy="17.23" r="2.03"/><path class="cls-1" d="M8.91,20.61a40.29,40.29,0,0,0-8.91,1A40.53,40.53,0,0,1,31.5,58.23a3.08,3.08,0,0,0,3.07,2.89h2.29a2.4,2.4,0,0,0,2.4-2.41V41.89a17,17,0,0,0-7.19-14A40.25,40.25,0,0,0,8.91,20.61Z"/><path class="cls-2" d="M75.08,20.61A40.3,40.3,0,0,0,51.92,27.9a17.06,17.06,0,0,0-7.19,14V58.71a2.41,2.41,0,0,0,2.41,2.41h2.28a3.09,3.09,0,0,0,3.08-2.89A40.51,40.51,0,0,1,84,21.61,40.31,40.31,0,0,0,75.08,20.61Z"/></g></g></svg>